<svg width="280" height="353" viewBox="0 0 280 353" fill="none" xmlns="http://www.w3.org/2000/svg">
<g clip-path="url(#clip0)">
<path d="M140.27 142.19L54.95 95.37C54.5998 95.1759 54.2052 95.0761 53.8049 95.0804C53.4045 95.0848 53.0122 95.1931 52.6663 95.3948C52.3205 95.5964 52.0329 95.8845 51.832 96.2308C51.631 96.5771 51.5235 96.9697 51.52 97.37C51.11 115.37 49.52 190.92 51.61 193.37C54.92 197.25 136.69 244.53 140.28 244.53C143.87 244.53 224.81 195.77 228.95 193.37C232.61 191.26 229.81 115.17 229.1 97.29C229.082 96.8968 228.964 96.5146 228.758 96.1794C228.551 95.8442 228.263 95.5671 227.92 95.374C227.577 95.181 227.19 95.0784 226.797 95.076C226.403 95.0735 226.015 95.1713 225.67 95.36L140.27 142.19Z" fill="#191919"/>
<path d="M140.27 252.5C137.8 252.5 135.46 252.5 91.83 227.3C48.91 202.51 46.44 199.62 45.51 198.53C43.13 195.73 42.23 194.68 42.62 151.08C42.81 129.61 43.31 106.21 43.52 97.15C43.5598 95.3781 44.0558 93.6463 44.96 92.1219C45.8642 90.5975 47.1461 89.3319 48.682 88.4474C50.2179 87.5628 51.9559 87.0891 53.7282 87.0721C55.5006 87.0551 57.2474 87.4952 58.8 88.35L140.28 133.06L221.82 88.32C223.364 87.4746 225.098 87.0381 226.859 87.0521C228.619 87.0661 230.346 87.5301 231.877 88.3999C233.407 89.2698 234.689 90.5167 235.602 92.022C236.514 93.5272 237.027 95.2409 237.09 97C237.45 106.09 238.32 129.57 238.66 151.15C238.85 163.39 238.83 173.15 238.66 180.26C238.28 192.42 237.66 197.63 233 200.33C232.33 200.72 229.6 202.33 225.5 204.8C145.48 252.5 143.63 252.5 140.27 252.5V252.5ZM59 188.91C70.93 197.03 127.16 229.52 140.26 235.91C148.26 231.91 174.15 216.81 217.26 191.05L222.18 188.11C223.18 178.95 222.95 147.35 221.47 106.81L144.12 149.2C142.94 149.848 141.616 150.187 140.27 150.187C138.924 150.187 137.6 149.848 136.42 149.2L59.31 106.89C58.43 148.63 58.3 179.89 59 188.91V188.91Z" fill="#191919"/>
<path d="M51.6 91.4899L140.27 44.2L228.94 91.4899L140.27 140.14L51.6 91.4899Z" fill="white"/>
<path d="M141.52 41.08V137.02L52.85 88.36L141.52 41.08Z" fill="#E6E6E6"/>
<path d="M140.27 142.19L51.6 93.53C51.6 93.53 49.22 190.53 51.6 193.34C54.91 197.22 136.68 244.5 140.27 244.5C143.86 244.5 224.8 195.74 228.94 193.34C233.08 190.94 228.94 93.53 228.94 93.53L140.27 142.19Z" fill="#1F4373"/>
<path d="M140.27 142.19C139.27 144.25 138.27 245 140.27 244.5C146.62 242.94 225.59 197.57 229.27 192.75C230.85 190.66 231.66 94.82 228.96 93.53C226.26 92.24 141.3 140.13 140.27 142.19Z" fill="#1F4373"/>
<path d="M228.42 88C233.01 85.47 257.88 71.67 256.57 70.91C255.26 70.15 168.9 24.97 166.72 24.31C164.72 23.7 142.24 38.41 138.59 40.81C134.83 38.2 107.77 19.57 104.69 21.29C101.38 23.09 21.3 67.77 18.43 69.43C15.79 71 45.22 85.79 49.77 88.07C45.52 90.22 20.08 102.66 21.65 103.56C23.22 104.46 105.47 153 109.87 153.48C112.7 153.79 135.67 139.24 138.69 137.24C142.07 139.48 169.69 157.72 172.45 156.16L259.58 106.16C261.19 105.28 233.66 90.72 228.42 88V88ZM138.69 136.86L50.94 88.05L138.53 41.33L226.84 87.91L138.69 136.86Z" fill="#191919"/>
<path d="M172.14 164.31C168.14 164.31 162.67 161.63 151.67 154.98C146.88 152.08 142.03 148.98 138.67 146.78C135.8 148.58 132.03 150.92 128.34 153.11C114.93 161 112 161.76 109 161.44C106.44 161.16 103.26 160.82 19.63 111.66L17.63 110.49C16.3569 109.756 15.307 108.69 14.592 107.406C13.877 106.123 13.5238 104.669 13.57 103.2C13.74 97.68 18.18 95.33 27.91 90.2C29.29 89.47 30.73 88.72 32.16 87.99L28.58 86C14.32 78.24 10.43 75.36 10.27 69.94C10.2268 68.4386 10.5919 66.9537 11.3263 65.6434C12.0606 64.3332 13.1368 63.2468 14.44 62.5C16.64 61.23 61.22 36.35 98.23 15.7L100.8 14.27C105.96 11.39 111.8 13.95 125.64 22.61C130.45 25.61 135.25 28.81 138.7 31.15C163.6 14.95 165.49 15.53 169.07 16.63C172.49 17.63 259.87 63.54 260.58 63.96C261.808 64.6805 262.826 65.7089 263.535 66.9436C264.243 68.1782 264.617 69.5765 264.62 71C264.57 76.43 261.1 78.44 248.21 85.93L245 87.79L249.77 90.42C264.1 98.42 267.49 100.49 267.59 105.93C267.618 107.384 267.255 108.82 266.539 110.086C265.823 111.353 264.781 112.404 263.52 113.13L184.37 158.51L176.37 163.09C175.095 163.87 173.634 164.291 172.14 164.31V164.31ZM153.89 137.55C161.44 142.29 167.89 146.04 171.26 147.63L176.47 144.63L244.37 105.7C240.06 103.27 234.43 100.19 227.67 96.6L153.89 137.55ZM37.18 103.4C81.43 129.33 103.36 141.61 110.12 144.94C113.03 143.52 118.27 140.48 123.3 137.43L50.2 96.8C44.69 99.55 40.44 101.71 37.18 103.4V103.4ZM67.67 88.2L138.67 127.68L210 88.1L138.52 50.4L67.67 88.2ZM33.22 70.32C37.8 72.89 43.77 76.06 50.22 79.32L123.5 40.24C117.84 36.4096 111.971 32.8975 105.92 29.72C65.29 52.39 44.08 64.24 33.21 70.32H33.22ZM153.92 40.41L227.6 79.27C232.6 76.49 237.18 73.88 240.94 71.68C220 60.68 177.66 38.68 166.35 32.97C163.73 34.38 159.27 37 153.92 40.41V40.41Z" fill="#191919"/>
<path d="M229.42 88C229.5 86.7 257.88 71.67 256.57 70.91C255.26 70.15 168.9 24.97 166.72 24.31C164.72 23.7 139.18 40.74 138.59 40.81C138 40.88 107.76 19.53 104.69 21.25C101.38 23.09 21.3 67.77 18.43 69.43C15.79 71 49.7 87.23 49.77 88.07C49.84 88.91 20.08 102.66 21.64 103.56C23.2 104.46 105.47 153 109.87 153.48C112.7 153.79 137.79 137.24 138.69 137.24C139.59 137.24 169.69 157.72 172.45 156.16L259.58 106.16C261.19 105.28 229.34 89.27 229.42 88V88ZM138.69 136.86C137.69 136.78 50.97 88.72 50.95 88.08C50.93 87.44 137.95 41.45 138.54 41.36C139.13 41.27 226.86 86.69 226.85 87.94C226.84 89.19 139.7 136.91 138.69 136.83V136.86Z" fill="white"/>
<path d="M139.67 142.67C139 159.84 138.67 220.34 140.28 244.5Z" fill="#D32920"/>
<path d="M140.27 248.5C139.254 248.502 138.276 248.118 137.533 247.425C136.79 246.733 136.339 245.783 136.27 244.77C134.63 220.09 135 159.55 135.66 142.52C135.68 141.995 135.804 141.479 136.024 141.001C136.244 140.524 136.555 140.094 136.941 139.737C137.327 139.38 137.779 139.102 138.272 138.92C138.766 138.738 139.29 138.655 139.815 138.675C140.34 138.695 140.856 138.819 141.334 139.039C141.811 139.259 142.241 139.57 142.598 139.956C142.955 140.342 143.233 140.794 143.415 141.287C143.597 141.781 143.68 142.305 143.66 142.83C143.02 159.27 142.66 220.26 144.26 244.24C144.295 244.765 144.227 245.291 144.058 245.79C143.89 246.288 143.625 246.748 143.278 247.144C142.932 247.539 142.511 247.863 142.039 248.095C141.568 248.328 141.055 248.466 140.53 248.5H140.27Z" fill="#191919"/>
</g>
<path d="M125.867 280.855C125.867 282.535 125.57 284.008 124.977 285.273C124.383 286.539 123.531 287.516 122.422 288.203C121.32 288.891 120.055 289.234 118.625 289.234C117.211 289.234 115.949 288.895 114.84 288.215C113.73 287.535 112.871 286.566 112.262 285.309C111.652 284.043 111.344 282.59 111.336 280.949V280.105C111.336 278.426 111.637 276.949 112.238 275.676C112.848 274.395 113.703 273.414 114.805 272.734C115.914 272.047 117.18 271.703 118.602 271.703C120.023 271.703 121.285 272.047 122.387 272.734C123.496 273.414 124.352 274.395 124.953 275.676C125.562 276.949 125.867 278.422 125.867 280.094V280.855ZM122.305 280.082C122.305 278.293 121.984 276.934 121.344 276.004C120.703 275.074 119.789 274.609 118.602 274.609C117.422 274.609 116.512 275.07 115.871 275.992C115.23 276.906 114.906 278.25 114.898 280.023V280.855C114.898 282.598 115.219 283.949 115.859 284.91C116.5 285.871 117.422 286.352 118.625 286.352C119.805 286.352 120.711 285.891 121.344 284.969C121.977 284.039 122.297 282.688 122.305 280.914V280.082ZM131.938 282.988V289H128.422V271.938H135.078C136.359 271.938 137.484 272.172 138.453 272.641C139.43 273.109 140.18 273.777 140.703 274.645C141.227 275.504 141.488 276.484 141.488 277.586C141.488 279.258 140.914 280.578 139.766 281.547C138.625 282.508 137.043 282.988 135.02 282.988H131.938ZM131.938 280.141H135.078C136.008 280.141 136.715 279.922 137.199 279.484C137.691 279.047 137.938 278.422 137.938 277.609C137.938 276.773 137.691 276.098 137.199 275.582C136.707 275.066 136.027 274.801 135.16 274.785H131.938V280.141ZM152.762 284.523C152.762 283.859 152.527 283.352 152.059 283C151.59 282.641 150.746 282.266 149.527 281.875C148.309 281.477 147.344 281.086 146.633 280.703C144.695 279.656 143.727 278.246 143.727 276.473C143.727 275.551 143.984 274.73 144.5 274.012C145.023 273.285 145.77 272.719 146.738 272.312C147.715 271.906 148.809 271.703 150.02 271.703C151.238 271.703 152.324 271.926 153.277 272.371C154.23 272.809 154.969 273.43 155.492 274.234C156.023 275.039 156.289 275.953 156.289 276.977H152.773C152.773 276.195 152.527 275.59 152.035 275.16C151.543 274.723 150.852 274.504 149.961 274.504C149.102 274.504 148.434 274.688 147.957 275.055C147.48 275.414 147.242 275.891 147.242 276.484C147.242 277.039 147.52 277.504 148.074 277.879C148.637 278.254 149.461 278.605 150.547 278.934C152.547 279.535 154.004 280.281 154.918 281.172C155.832 282.062 156.289 283.172 156.289 284.5C156.289 285.977 155.73 287.137 154.613 287.98C153.496 288.816 151.992 289.234 150.102 289.234C148.789 289.234 147.594 288.996 146.516 288.52C145.438 288.035 144.613 287.375 144.043 286.539C143.48 285.703 143.199 284.734 143.199 283.633H146.727C146.727 285.516 147.852 286.457 150.102 286.457C150.938 286.457 151.59 286.289 152.059 285.953C152.527 285.609 152.762 285.133 152.762 284.523ZM161.902 283.762H159.09L158.691 271.938H162.301L161.902 283.762ZM160.496 285.613C161.066 285.613 161.523 285.781 161.867 286.117C162.219 286.453 162.395 286.883 162.395 287.406C162.395 287.922 162.219 288.348 161.867 288.684C161.523 289.02 161.066 289.188 160.496 289.188C159.934 289.188 159.477 289.02 159.125 288.684C158.781 288.348 158.609 287.922 158.609 287.406C158.609 286.891 158.781 286.465 159.125 286.129C159.477 285.785 159.934 285.613 160.496 285.613ZM24.418 317H20.9023L14.0586 305.773V317H10.543V299.938H14.0586L20.9141 311.188V299.938H24.418V317ZM34.6133 317C34.457 316.695 34.3438 316.316 34.2734 315.863C33.4531 316.777 32.3867 317.234 31.0742 317.234C29.832 317.234 28.8008 316.875 27.9805 316.156C27.168 315.438 26.7617 314.531 26.7617 313.438C26.7617 312.094 27.2578 311.062 28.25 310.344C29.25 309.625 30.6914 309.262 32.5742 309.254H34.1328V308.527C34.1328 307.941 33.9805 307.473 33.6758 307.121C33.3789 306.77 32.9062 306.594 32.2578 306.594C31.6875 306.594 31.2383 306.73 30.9102 307.004C30.5898 307.277 30.4297 307.652 30.4297 308.129H27.043C27.043 307.395 27.2695 306.715 27.7227 306.09C28.1758 305.465 28.8164 304.977 29.6445 304.625C30.4727 304.266 31.4023 304.086 32.4336 304.086C33.9961 304.086 35.2344 304.48 36.1484 305.27C37.0703 306.051 37.5312 307.152 37.5312 308.574V314.07C37.5391 315.273 37.707 316.184 38.0352 316.801V317H34.6133ZM31.8125 314.645C32.3125 314.645 32.7734 314.535 33.1953 314.316C33.6172 314.09 33.9297 313.789 34.1328 313.414V311.234H32.8672C31.1719 311.234 30.2695 311.82 30.1602 312.992L30.1484 313.191C30.1484 313.613 30.2969 313.961 30.5938 314.234C30.8906 314.508 31.2969 314.645 31.8125 314.645ZM36.8281 299.152C36.8281 300.035 36.5703 300.777 36.0547 301.379C35.5391 301.973 34.9102 302.27 34.168 302.27C33.8711 302.27 33.6055 302.238 33.3711 302.176C33.1445 302.105 32.8281 301.961 32.4219 301.742C32.0156 301.523 31.7227 301.391 31.543 301.344C31.3633 301.289 31.168 301.262 30.957 301.262C30.6836 301.262 30.4492 301.359 30.2539 301.555C30.0664 301.75 29.9727 302.027 29.9727 302.387L28.0039 302.27C28.0039 301.402 28.2578 300.664 28.7656 300.055C29.2812 299.445 29.9102 299.141 30.6523 299.141C30.8867 299.141 31.1055 299.172 31.3086 299.234C31.5195 299.289 31.8594 299.43 32.3281 299.656C32.7969 299.883 33.1211 300.02 33.3008 300.066C33.4805 300.113 33.668 300.137 33.8633 300.137C34.1367 300.137 34.3711 300.043 34.5664 299.855C34.7695 299.66 34.8711 299.383 34.8711 299.023L36.8281 299.152ZM39.6055 310.543C39.6055 309.285 39.8477 308.164 40.332 307.18C40.8164 306.195 41.5117 305.434 42.418 304.895C43.332 304.355 44.3906 304.086 45.5938 304.086C47.3047 304.086 48.6992 304.609 49.7773 305.656C50.8633 306.703 51.4688 308.125 51.5938 309.922L51.6172 310.789C51.6172 312.734 51.0742 314.297 49.9883 315.477C48.9023 316.648 47.4453 317.234 45.6172 317.234C43.7891 317.234 42.3281 316.648 41.2344 315.477C40.1484 314.305 39.6055 312.711 39.6055 310.695V310.543ZM42.9922 310.789C42.9922 311.992 43.2188 312.914 43.6719 313.555C44.125 314.188 44.7734 314.504 45.6172 314.504C46.4375 314.504 47.0781 314.191 47.5391 313.566C48 312.934 48.2305 311.926 48.2305 310.543C48.2305 309.363 48 308.449 47.5391 307.801C47.0781 307.152 46.4297 306.828 45.5938 306.828C44.7656 306.828 44.125 307.152 43.6719 307.801C43.2188 308.441 42.9922 309.438 42.9922 310.789ZM65.5156 317.234C63.6562 317.234 62.1406 316.664 60.9688 315.523C59.8047 314.383 59.2227 312.863 59.2227 310.965V310.637C59.2227 309.363 59.4688 308.227 59.9609 307.227C60.4531 306.219 61.1484 305.445 62.0469 304.906C62.9531 304.359 63.9844 304.086 65.1406 304.086C66.875 304.086 68.2383 304.633 69.2305 305.727C70.2305 306.82 70.7305 308.371 70.7305 310.379V311.762H62.6562C62.7656 312.59 63.0938 313.254 63.6406 313.754C64.1953 314.254 64.8945 314.504 65.7383 314.504C67.043 314.504 68.0625 314.031 68.7969 313.086L70.4609 314.949C69.9531 315.668 69.2656 316.23 68.3984 316.637C67.5312 317.035 66.5703 317.234 65.5156 317.234ZM65.1289 306.828C64.457 306.828 63.9102 307.055 63.4883 307.508C63.0742 307.961 62.8086 308.609 62.6914 309.453H67.4023V309.184C67.3867 308.434 67.1836 307.855 66.793 307.449C66.4023 307.035 65.8477 306.828 65.1289 306.828ZM77.4922 308.105L79.625 304.32H83.2461L79.6367 310.531L83.3984 317H79.7656L77.5039 313.016L75.2539 317H71.6094L75.3711 310.531L71.7734 304.32H75.4062L77.4922 308.105ZM88.4492 317H85.0508V304.32H88.4492V317ZM84.8516 301.039C84.8516 300.531 85.0195 300.113 85.3555 299.785C85.6992 299.457 86.1641 299.293 86.75 299.293C87.3281 299.293 87.7891 299.457 88.1328 299.785C88.4766 300.113 88.6484 300.531 88.6484 301.039C88.6484 301.555 88.4727 301.977 88.1211 302.305C87.7773 302.633 87.3203 302.797 86.75 302.797C86.1797 302.797 85.7188 302.633 85.3672 302.305C85.0234 301.977 84.8516 301.555 84.8516 301.039ZM98.1172 313.496C98.1172 313.082 97.9102 312.758 97.4961 312.523C97.0898 312.281 96.4336 312.066 95.5273 311.879C92.5117 311.246 91.0039 309.965 91.0039 308.035C91.0039 306.91 91.4688 305.973 92.3984 305.223C93.3359 304.465 94.5586 304.086 96.0664 304.086C97.6758 304.086 98.9609 304.465 99.9219 305.223C100.891 305.98 101.375 306.965 101.375 308.176H97.9883C97.9883 307.691 97.832 307.293 97.5195 306.98C97.207 306.66 96.7188 306.5 96.0547 306.5C95.4844 306.5 95.043 306.629 94.7305 306.887C94.418 307.145 94.2617 307.473 94.2617 307.871C94.2617 308.246 94.4375 308.551 94.7891 308.785C95.1484 309.012 95.75 309.211 96.5938 309.383C97.4375 309.547 98.1484 309.734 98.7266 309.945C100.516 310.602 101.41 311.738 101.41 313.355C101.41 314.512 100.914 315.449 99.9219 316.168C98.9297 316.879 97.6484 317.234 96.0781 317.234C95.0156 317.234 94.0703 317.047 93.2422 316.672C92.4219 316.289 91.7773 315.77 91.3086 315.113C90.8398 314.449 90.6055 313.734 90.6055 312.969H93.8164C93.8477 313.57 94.0703 314.031 94.4844 314.352C94.8984 314.672 95.4531 314.832 96.1484 314.832C96.7969 314.832 97.2852 314.711 97.6133 314.469C97.9492 314.219 98.1172 313.895 98.1172 313.496ZM107.656 301.203V304.32H109.824V306.805H107.656V313.133C107.656 313.602 107.746 313.938 107.926 314.141C108.105 314.344 108.449 314.445 108.957 314.445C109.332 314.445 109.664 314.418 109.953 314.363V316.93C109.289 317.133 108.605 317.234 107.902 317.234C105.527 317.234 104.316 316.035 104.27 313.637V306.805H102.418V304.32H104.27V301.203H107.656ZM117.547 317.234C115.688 317.234 114.172 316.664 113 315.523C111.836 314.383 111.254 312.863 111.254 310.965V310.637C111.254 309.363 111.5 308.227 111.992 307.227C112.484 306.219 113.18 305.445 114.078 304.906C114.984 304.359 116.016 304.086 117.172 304.086C118.906 304.086 120.27 304.633 121.262 305.727C122.262 306.82 122.762 308.371 122.762 310.379V311.762H114.688C114.797 312.59 115.125 313.254 115.672 313.754C116.227 314.254 116.926 314.504 117.77 314.504C119.074 314.504 120.094 314.031 120.828 313.086L122.492 314.949C121.984 315.668 121.297 316.23 120.43 316.637C119.562 317.035 118.602 317.234 117.547 317.234ZM117.16 306.828C116.488 306.828 115.941 307.055 115.52 307.508C115.105 307.961 114.84 308.609 114.723 309.453H119.434V309.184C119.418 308.434 119.215 307.855 118.824 307.449C118.434 307.035 117.879 306.828 117.16 306.828ZM127.871 304.32L127.977 305.738C128.875 304.637 130.09 304.086 131.621 304.086C133.254 304.086 134.375 304.73 134.984 306.02C135.875 304.73 137.145 304.086 138.793 304.086C140.168 304.086 141.191 304.488 141.863 305.293C142.535 306.09 142.871 307.293 142.871 308.902V317H139.473V308.914C139.473 308.195 139.332 307.672 139.051 307.344C138.77 307.008 138.273 306.84 137.562 306.84C136.547 306.84 135.844 307.324 135.453 308.293L135.465 317H132.078V308.926C132.078 308.191 131.934 307.66 131.645 307.332C131.355 307.004 130.863 306.84 130.168 306.84C129.207 306.84 128.512 307.238 128.082 308.035V317H124.695V304.32H127.871ZM158.809 317C158.652 316.695 158.539 316.316 158.469 315.863C157.648 316.777 156.582 317.234 155.27 317.234C154.027 317.234 152.996 316.875 152.176 316.156C151.363 315.438 150.957 314.531 150.957 313.438C150.957 312.094 151.453 311.062 152.445 310.344C153.445 309.625 154.887 309.262 156.77 309.254H158.328V308.527C158.328 307.941 158.176 307.473 157.871 307.121C157.574 306.77 157.102 306.594 156.453 306.594C155.883 306.594 155.434 306.73 155.105 307.004C154.785 307.277 154.625 307.652 154.625 308.129H151.238C151.238 307.395 151.465 306.715 151.918 306.09C152.371 305.465 153.012 304.977 153.84 304.625C154.668 304.266 155.598 304.086 156.629 304.086C158.191 304.086 159.43 304.48 160.344 305.27C161.266 306.051 161.727 307.152 161.727 308.574V314.07C161.734 315.273 161.902 316.184 162.23 316.801V317H158.809ZM156.008 314.645C156.508 314.645 156.969 314.535 157.391 314.316C157.812 314.09 158.125 313.789 158.328 313.414V311.234H157.062C155.367 311.234 154.465 311.82 154.355 312.992L154.344 313.191C154.344 313.613 154.492 313.961 154.789 314.234C155.086 314.508 155.492 314.645 156.008 314.645ZM168.383 301.203V304.32H170.551V306.805H168.383V313.133C168.383 313.602 168.473 313.938 168.652 314.141C168.832 314.344 169.176 314.445 169.684 314.445C170.059 314.445 170.391 314.418 170.68 314.363V316.93C170.016 317.133 169.332 317.234 168.629 317.234C166.254 317.234 165.043 316.035 164.996 313.637V306.805H163.145V304.32H164.996V301.203H168.383ZM178.273 317.234C176.414 317.234 174.898 316.664 173.727 315.523C172.562 314.383 171.98 312.863 171.98 310.965V310.637C171.98 309.363 172.227 308.227 172.719 307.227C173.211 306.219 173.906 305.445 174.805 304.906C175.711 304.359 176.742 304.086 177.898 304.086C179.633 304.086 180.996 304.633 181.988 305.727C182.988 306.82 183.488 308.371 183.488 310.379V311.762H175.414C175.523 312.59 175.852 313.254 176.398 313.754C176.953 314.254 177.652 314.504 178.496 314.504C179.801 314.504 180.82 314.031 181.555 313.086L183.219 314.949C182.711 315.668 182.023 316.23 181.156 316.637C180.289 317.035 179.328 317.234 178.273 317.234ZM177.887 306.828C177.215 306.828 176.668 307.055 176.246 307.508C175.832 307.961 175.566 308.609 175.449 309.453H180.16V309.184C180.145 308.434 179.941 307.855 179.551 307.449C179.16 307.035 178.605 306.828 177.887 306.828ZM188.539 304.32L188.645 305.785C189.551 304.652 190.766 304.086 192.289 304.086C193.633 304.086 194.633 304.48 195.289 305.27C195.945 306.059 196.281 307.238 196.297 308.809V317H192.91V308.891C192.91 308.172 192.754 307.652 192.441 307.332C192.129 307.004 191.609 306.84 190.883 306.84C189.93 306.84 189.215 307.246 188.738 308.059V317H185.352V304.32H188.539ZM198.348 310.566C198.348 308.59 198.789 307.016 199.672 305.844C200.562 304.672 201.777 304.086 203.316 304.086C204.551 304.086 205.57 304.547 206.375 305.469V299H209.773V317H206.715L206.551 315.652C205.707 316.707 204.621 317.234 203.293 317.234C201.801 317.234 200.602 316.648 199.695 315.477C198.797 314.297 198.348 312.66 198.348 310.566ZM201.734 310.812C201.734 312 201.941 312.91 202.355 313.543C202.77 314.176 203.371 314.492 204.16 314.492C205.207 314.492 205.945 314.051 206.375 313.168V308.164C205.953 307.281 205.223 306.84 204.184 306.84C202.551 306.84 201.734 308.164 201.734 310.812ZM218.234 317.234C216.375 317.234 214.859 316.664 213.688 315.523C212.523 314.383 211.941 312.863 211.941 310.965V310.637C211.941 309.363 212.188 308.227 212.68 307.227C213.172 306.219 213.867 305.445 214.766 304.906C215.672 304.359 216.703 304.086 217.859 304.086C219.594 304.086 220.957 304.633 221.949 305.727C222.949 306.82 223.449 308.371 223.449 310.379V311.762H215.375C215.484 312.59 215.812 313.254 216.359 313.754C216.914 314.254 217.613 314.504 218.457 314.504C219.762 314.504 220.781 314.031 221.516 313.086L223.18 314.949C222.672 315.668 221.984 316.23 221.117 316.637C220.25 317.035 219.289 317.234 218.234 317.234ZM217.848 306.828C217.176 306.828 216.629 307.055 216.207 307.508C215.793 307.961 215.527 308.609 215.41 309.453H220.121V309.184C220.105 308.434 219.902 307.855 219.512 307.449C219.121 307.035 218.566 306.828 217.848 306.828ZM228.5 304.32L228.605 305.785C229.512 304.652 230.727 304.086 232.25 304.086C233.594 304.086 234.594 304.48 235.25 305.27C235.906 306.059 236.242 307.238 236.258 308.809V317H232.871V308.891C232.871 308.172 232.715 307.652 232.402 307.332C232.09 307.004 231.57 306.84 230.844 306.84C229.891 306.84 229.176 307.246 228.699 308.059V317H225.312V304.32H228.5ZM242.891 301.203V304.32H245.059V306.805H242.891V313.133C242.891 313.602 242.98 313.938 243.16 314.141C243.34 314.344 243.684 314.445 244.191 314.445C244.566 314.445 244.898 314.418 245.188 314.363V316.93C244.523 317.133 243.84 317.234 243.137 317.234C240.762 317.234 239.551 316.035 239.504 313.637V306.805H237.652V304.32H239.504V301.203H242.891ZM252.781 317.234C250.922 317.234 249.406 316.664 248.234 315.523C247.07 314.383 246.488 312.863 246.488 310.965V310.637C246.488 309.363 246.734 308.227 247.227 307.227C247.719 306.219 248.414 305.445 249.312 304.906C250.219 304.359 251.25 304.086 252.406 304.086C254.141 304.086 255.504 304.633 256.496 305.727C257.496 306.82 257.996 308.371 257.996 310.379V311.762H249.922C250.031 312.59 250.359 313.254 250.906 313.754C251.461 314.254 252.16 314.504 253.004 314.504C254.309 314.504 255.328 314.031 256.062 313.086L257.727 314.949C257.219 315.668 256.531 316.23 255.664 316.637C254.797 317.035 253.836 317.234 252.781 317.234ZM252.395 306.828C251.723 306.828 251.176 307.055 250.754 307.508C250.34 307.961 250.074 308.609 249.957 309.453H254.668V309.184C254.652 308.434 254.449 307.855 254.059 307.449C253.668 307.035 253.113 306.828 252.395 306.828ZM266.797 313.496C266.797 313.082 266.59 312.758 266.176 312.523C265.77 312.281 265.113 312.066 264.207 311.879C261.191 311.246 259.684 309.965 259.684 308.035C259.684 306.91 260.148 305.973 261.078 305.223C262.016 304.465 263.238 304.086 264.746 304.086C266.355 304.086 267.641 304.465 268.602 305.223C269.57 305.98 270.055 306.965 270.055 308.176H266.668C266.668 307.691 266.512 307.293 266.199 306.98C265.887 306.66 265.398 306.5 264.734 306.5C264.164 306.5 263.723 306.629 263.41 306.887C263.098 307.145 262.941 307.473 262.941 307.871C262.941 308.246 263.117 308.551 263.469 308.785C263.828 309.012 264.43 309.211 265.273 309.383C266.117 309.547 266.828 309.734 267.406 309.945C269.195 310.602 270.09 311.738 270.09 313.355C270.09 314.512 269.594 315.449 268.602 316.168C267.609 316.879 266.328 317.234 264.758 317.234C263.695 317.234 262.75 317.047 261.922 316.672C261.102 316.289 260.457 315.77 259.988 315.113C259.52 314.449 259.285 313.734 259.285 312.969H262.496C262.527 313.57 262.75 314.031 263.164 314.352C263.578 314.672 264.133 314.832 264.828 314.832C265.477 314.832 265.965 314.711 266.293 314.469C266.629 314.219 266.797 313.895 266.797 313.496ZM76.6016 342.504C77.2266 342.504 77.7344 342.332 78.125 341.988C78.5156 341.645 78.7188 341.188 78.7344 340.617H81.9102C81.9023 341.477 81.668 342.266 81.207 342.984C80.7461 343.695 80.1133 344.25 79.3086 344.648C78.5117 345.039 77.6289 345.234 76.6602 345.234C74.8477 345.234 73.418 344.66 72.3711 343.512C71.3242 342.355 70.8008 340.762 70.8008 338.73V338.508C70.8008 336.555 71.3203 334.996 72.3594 333.832C73.3984 332.668 74.8242 332.086 76.6367 332.086C78.2227 332.086 79.4922 332.539 80.4453 333.445C81.4062 334.344 81.8945 335.543 81.9102 337.043H78.7344C78.7188 336.387 78.5156 335.855 78.125 335.449C77.7344 335.035 77.2188 334.828 76.5781 334.828C75.7891 334.828 75.1914 335.117 74.7852 335.695C74.3867 336.266 74.1875 337.195 74.1875 338.484V338.836C74.1875 340.141 74.3867 341.078 74.7852 341.648C75.1836 342.219 75.7891 342.504 76.6016 342.504ZM91.1914 345C91.0352 344.695 90.9219 344.316 90.8516 343.863C90.0312 344.777 88.9648 345.234 87.6523 345.234C86.4102 345.234 85.3789 344.875 84.5586 344.156C83.7461 343.438 83.3398 342.531 83.3398 341.438C83.3398 340.094 83.8359 339.062 84.8281 338.344C85.8281 337.625 87.2695 337.262 89.1523 337.254H90.7109V336.527C90.7109 335.941 90.5586 335.473 90.2539 335.121C89.957 334.77 89.4844 334.594 88.8359 334.594C88.2656 334.594 87.8164 334.73 87.4883 335.004C87.168 335.277 87.0078 335.652 87.0078 336.129H83.6211C83.6211 335.395 83.8477 334.715 84.3008 334.09C84.7539 333.465 85.3945 332.977 86.2227 332.625C87.0508 332.266 87.9805 332.086 89.0117 332.086C90.5742 332.086 91.8125 332.48 92.7266 333.27C93.6484 334.051 94.1094 335.152 94.1094 336.574V342.07C94.1172 343.273 94.2852 344.184 94.6133 344.801V345H91.1914ZM88.3906 342.645C88.8906 342.645 89.3516 342.535 89.7734 342.316C90.1953 342.09 90.5078 341.789 90.7109 341.414V339.234H89.4453C87.75 339.234 86.8477 339.82 86.7383 340.992L86.7266 341.191C86.7266 341.613 86.875 341.961 87.1719 342.234C87.4688 342.508 87.875 342.645 88.3906 342.645ZM96.1836 338.566C96.1836 336.59 96.625 335.016 97.5078 333.844C98.3984 332.672 99.6133 332.086 101.152 332.086C102.387 332.086 103.406 332.547 104.211 333.469V327H107.609V345H104.551L104.387 343.652C103.543 344.707 102.457 345.234 101.129 345.234C99.6367 345.234 98.4375 344.648 97.5312 343.477C96.6328 342.297 96.1836 340.66 96.1836 338.566ZM99.5703 338.812C99.5703 340 99.7773 340.91 100.191 341.543C100.605 342.176 101.207 342.492 101.996 342.492C103.043 342.492 103.781 342.051 104.211 341.168V336.164C103.789 335.281 103.059 334.84 102.02 334.84C100.387 334.84 99.5703 336.164 99.5703 338.812ZM117.582 345C117.426 344.695 117.312 344.316 117.242 343.863C116.422 344.777 115.355 345.234 114.043 345.234C112.801 345.234 111.77 344.875 110.949 344.156C110.137 343.438 109.73 342.531 109.73 341.438C109.73 340.094 110.227 339.062 111.219 338.344C112.219 337.625 113.66 337.262 115.543 337.254H117.102V336.527C117.102 335.941 116.949 335.473 116.645 335.121C116.348 334.77 115.875 334.594 115.227 334.594C114.656 334.594 114.207 334.73 113.879 335.004C113.559 335.277 113.398 335.652 113.398 336.129H110.012C110.012 335.395 110.238 334.715 110.691 334.09C111.145 333.465 111.785 332.977 112.613 332.625C113.441 332.266 114.371 332.086 115.402 332.086C116.965 332.086 118.203 332.48 119.117 333.27C120.039 334.051 120.5 335.152 120.5 336.574V342.07C120.508 343.273 120.676 344.184 121.004 344.801V345H117.582ZM114.781 342.645C115.281 342.645 115.742 342.535 116.164 342.316C116.586 342.09 116.898 341.789 117.102 341.414V339.234H115.836C114.141 339.234 113.238 339.82 113.129 340.992L113.117 341.191C113.117 341.613 113.266 341.961 113.562 342.234C113.859 342.508 114.266 342.645 114.781 342.645ZM129.969 341.496C129.969 341.082 129.762 340.758 129.348 340.523C128.941 340.281 128.285 340.066 127.379 339.879C124.363 339.246 122.855 337.965 122.855 336.035C122.855 334.91 123.32 333.973 124.25 333.223C125.188 332.465 126.41 332.086 127.918 332.086C129.527 332.086 130.812 332.465 131.773 333.223C132.742 333.98 133.227 334.965 133.227 336.176H129.84C129.84 335.691 129.684 335.293 129.371 334.98C129.059 334.66 128.57 334.5 127.906 334.5C127.336 334.5 126.895 334.629 126.582 334.887C126.27 335.145 126.113 335.473 126.113 335.871C126.113 336.246 126.289 336.551 126.641 336.785C127 337.012 127.602 337.211 128.445 337.383C129.289 337.547 130 337.734 130.578 337.945C132.367 338.602 133.262 339.738 133.262 341.355C133.262 342.512 132.766 343.449 131.773 344.168C130.781 344.879 129.5 345.234 127.93 345.234C126.867 345.234 125.922 345.047 125.094 344.672C124.273 344.289 123.629 343.77 123.16 343.113C122.691 342.449 122.457 341.734 122.457 340.969H125.668C125.699 341.57 125.922 342.031 126.336 342.352C126.75 342.672 127.305 342.832 128 342.832C128.648 342.832 129.137 342.711 129.465 342.469C129.801 342.219 129.969 341.895 129.969 341.496ZM139.508 329.203V332.32H141.676V334.805H139.508V341.133C139.508 341.602 139.598 341.938 139.777 342.141C139.957 342.344 140.301 342.445 140.809 342.445C141.184 342.445 141.516 342.418 141.805 342.363V344.93C141.141 345.133 140.457 345.234 139.754 345.234C137.379 345.234 136.168 344.035 136.121 341.637V334.805H134.27V332.32H136.121V329.203H139.508ZM150.688 335.496C150.227 335.434 149.82 335.402 149.469 335.402C148.188 335.402 147.348 335.836 146.949 336.703V345H143.562V332.32H146.762L146.855 333.832C147.535 332.668 148.477 332.086 149.68 332.086C150.055 332.086 150.406 332.137 150.734 332.238L150.688 335.496ZM159.324 345C159.168 344.695 159.055 344.316 158.984 343.863C158.164 344.777 157.098 345.234 155.785 345.234C154.543 345.234 153.512 344.875 152.691 344.156C151.879 343.438 151.473 342.531 151.473 341.438C151.473 340.094 151.969 339.062 152.961 338.344C153.961 337.625 155.402 337.262 157.285 337.254H158.844V336.527C158.844 335.941 158.691 335.473 158.387 335.121C158.09 334.77 157.617 334.594 156.969 334.594C156.398 334.594 155.949 334.73 155.621 335.004C155.301 335.277 155.141 335.652 155.141 336.129H151.754C151.754 335.395 151.98 334.715 152.434 334.09C152.887 333.465 153.527 332.977 154.355 332.625C155.184 332.266 156.113 332.086 157.145 332.086C158.707 332.086 159.945 332.48 160.859 333.27C161.781 334.051 162.242 335.152 162.242 336.574V342.07C162.25 343.273 162.418 344.184 162.746 344.801V345H159.324ZM156.523 342.645C157.023 342.645 157.484 342.535 157.906 342.316C158.328 342.09 158.641 341.789 158.844 341.414V339.234H157.578C155.883 339.234 154.98 339.82 154.871 340.992L154.859 341.191C154.859 341.613 155.008 341.961 155.305 342.234C155.602 342.508 156.008 342.645 156.523 342.645ZM164.316 338.566C164.316 336.59 164.758 335.016 165.641 333.844C166.531 332.672 167.746 332.086 169.285 332.086C170.52 332.086 171.539 332.547 172.344 333.469V327H175.742V345H172.684L172.52 343.652C171.676 344.707 170.59 345.234 169.262 345.234C167.77 345.234 166.57 344.648 165.664 343.477C164.766 342.297 164.316 340.66 164.316 338.566ZM167.703 338.812C167.703 340 167.91 340.91 168.324 341.543C168.738 342.176 169.34 342.492 170.129 342.492C171.176 342.492 171.914 342.051 172.344 341.168V336.164C171.922 335.281 171.191 334.84 170.152 334.84C168.52 334.84 167.703 336.164 167.703 338.812ZM177.84 338.543C177.84 337.285 178.082 336.164 178.566 335.18C179.051 334.195 179.746 333.434 180.652 332.895C181.566 332.355 182.625 332.086 183.828 332.086C185.539 332.086 186.934 332.609 188.012 333.656C189.098 334.703 189.703 336.125 189.828 337.922L189.852 338.789C189.852 340.734 189.309 342.297 188.223 343.477C187.137 344.648 185.68 345.234 183.852 345.234C182.023 345.234 180.562 344.648 179.469 343.477C178.383 342.305 177.84 340.711 177.84 338.695V338.543ZM181.227 338.789C181.227 339.992 181.453 340.914 181.906 341.555C182.359 342.188 183.008 342.504 183.852 342.504C184.672 342.504 185.312 342.191 185.773 341.566C186.234 340.934 186.465 339.926 186.465 338.543C186.465 337.363 186.234 336.449 185.773 335.801C185.312 335.152 184.664 334.828 183.828 334.828C183 334.828 182.359 335.152 181.906 335.801C181.453 336.441 181.227 337.438 181.227 338.789ZM198.805 341.496C198.805 341.082 198.598 340.758 198.184 340.523C197.777 340.281 197.121 340.066 196.215 339.879C193.199 339.246 191.691 337.965 191.691 336.035C191.691 334.91 192.156 333.973 193.086 333.223C194.023 332.465 195.246 332.086 196.754 332.086C198.363 332.086 199.648 332.465 200.609 333.223C201.578 333.98 202.062 334.965 202.062 336.176H198.676C198.676 335.691 198.52 335.293 198.207 334.98C197.895 334.66 197.406 334.5 196.742 334.5C196.172 334.5 195.73 334.629 195.418 334.887C195.105 335.145 194.949 335.473 194.949 335.871C194.949 336.246 195.125 336.551 195.477 336.785C195.836 337.012 196.438 337.211 197.281 337.383C198.125 337.547 198.836 337.734 199.414 337.945C201.203 338.602 202.098 339.738 202.098 341.355C202.098 342.512 201.602 343.449 200.609 344.168C199.617 344.879 198.336 345.234 196.766 345.234C195.703 345.234 194.758 345.047 193.93 344.672C193.109 344.289 192.465 343.77 191.996 343.113C191.527 342.449 191.293 341.734 191.293 340.969H194.504C194.535 341.57 194.758 342.031 195.172 342.352C195.586 342.672 196.141 342.832 196.836 342.832C197.484 342.832 197.973 342.711 198.301 342.469C198.637 342.219 198.805 341.895 198.805 341.496ZM204.465 343.336C204.465 342.797 204.645 342.359 205.004 342.023C205.371 341.688 205.828 341.52 206.375 341.52C206.93 341.52 207.387 341.688 207.746 342.023C208.113 342.359 208.297 342.797 208.297 343.336C208.297 343.867 208.117 344.301 207.758 344.637C207.398 344.965 206.938 345.129 206.375 345.129C205.82 345.129 205.363 344.965 205.004 344.637C204.645 344.301 204.465 343.867 204.465 343.336Z" fill="black"/>
<defs>
<clipPath id="clip0">
<rect width="256" height="256" fill="white" transform="translate(11)"/>
</clipPath>
</defs>
</svg>
