<svg width="261" height="353" viewBox="0 0 261 353" fill="none" xmlns="http://www.w3.org/2000/svg">
<g clip-path="url(#clip0)">
<path d="M131.27 142.19L45.95 95.37C45.5998 95.1759 45.2052 95.0761 44.8049 95.0804C44.4045 95.0848 44.0122 95.1931 43.6663 95.3948C43.3205 95.5964 43.0329 95.8845 42.832 96.2308C42.631 96.5771 42.5235 96.9697 42.52 97.37C42.11 115.37 40.52 190.92 42.61 193.37C45.92 197.25 127.69 244.53 131.28 244.53C134.87 244.53 215.81 195.77 219.95 193.37C223.61 191.26 220.81 115.17 220.1 97.29C220.082 96.8968 219.964 96.5146 219.758 96.1794C219.551 95.8442 219.263 95.5671 218.92 95.374C218.577 95.181 218.19 95.0784 217.797 95.076C217.403 95.0735 217.015 95.1713 216.67 95.36L131.27 142.19Z" fill="#191919"/>
<path d="M131.27 252.5C128.8 252.5 126.46 252.5 82.83 227.3C39.91 202.51 37.44 199.62 36.51 198.53C34.13 195.73 33.23 194.68 33.62 151.08C33.81 129.61 34.31 106.21 34.52 97.15C34.5598 95.3781 35.0558 93.6463 35.96 92.1219C36.8642 90.5975 38.1461 89.3319 39.682 88.4474C41.2179 87.5628 42.9559 87.0891 44.7282 87.0721C46.5006 87.0551 48.2474 87.4952 49.8 88.35L131.28 133.06L212.82 88.32C214.364 87.4746 216.098 87.0381 217.859 87.0521C219.619 87.0661 221.346 87.5301 222.877 88.3999C224.407 89.2698 225.689 90.5167 226.602 92.022C227.514 93.5272 228.027 95.2409 228.09 97C228.45 106.09 229.32 129.57 229.66 151.15C229.85 163.39 229.83 173.15 229.66 180.26C229.28 192.42 228.66 197.63 224 200.33C223.33 200.72 220.6 202.33 216.5 204.8C136.48 252.5 134.63 252.5 131.27 252.5V252.5ZM50 188.91C61.93 197.03 118.16 229.52 131.26 235.91C139.26 231.91 165.15 216.81 208.26 191.05L213.18 188.11C214.18 178.95 213.95 147.35 212.47 106.81L135.12 149.2C133.94 149.848 132.616 150.187 131.27 150.187C129.924 150.187 128.6 149.848 127.42 149.2L50.31 106.89C49.43 148.63 49.3 179.89 50 188.91V188.91Z" fill="#191919"/>
<path d="M42.6 91.4899L131.27 44.2L219.94 91.4899L131.27 140.14L42.6 91.4899Z" fill="white"/>
<path d="M132.52 41.08V137.02L43.85 88.36L132.52 41.08Z" fill="#E6E6E6"/>
<path d="M131.27 142.19L42.6 93.53C42.6 93.53 40.22 190.53 42.6 193.34C45.91 197.22 127.68 244.5 131.27 244.5C134.86 244.5 215.8 195.74 219.94 193.34C224.08 190.94 219.94 93.53 219.94 93.53L131.27 142.19Z" fill="#1F4373"/>
<path d="M131.27 142.19C130.27 144.25 129.27 245 131.27 244.5C137.62 242.94 216.59 197.57 220.27 192.75C221.85 190.66 222.66 94.82 219.96 93.53C217.26 92.24 132.3 140.13 131.27 142.19Z" fill="#1F4373"/>
<path d="M219.42 88C224.01 85.47 248.88 71.67 247.57 70.91C246.26 70.15 159.9 24.97 157.72 24.31C155.72 23.7 133.24 38.41 129.59 40.81C125.83 38.2 98.77 19.57 95.69 21.29C92.38 23.09 12.3 67.77 9.43 69.43C6.79 71 36.22 85.79 40.77 88.07C36.52 90.22 11.08 102.66 12.65 103.56C14.22 104.46 96.47 153 100.87 153.48C103.7 153.79 126.67 139.24 129.69 137.24C133.07 139.48 160.69 157.72 163.45 156.16L250.58 106.16C252.19 105.28 224.66 90.72 219.42 88V88ZM129.69 136.86L41.94 88.05L129.53 41.33L217.84 87.91L129.69 136.86Z" fill="#191919"/>
<path d="M163.14 164.31C159.14 164.31 153.67 161.63 142.67 154.98C137.88 152.08 133.03 148.98 129.67 146.78C126.8 148.58 123.03 150.92 119.34 153.11C105.93 161 103 161.76 100 161.44C97.44 161.16 94.26 160.82 10.63 111.66L8.63 110.49C7.35695 109.756 6.30696 108.69 5.59196 107.406C4.87695 106.123 4.52375 104.669 4.57 103.2C4.74 97.68 9.18 95.33 18.91 90.2C20.29 89.47 21.73 88.72 23.16 87.99L19.58 86C5.32 78.24 1.43 75.36 1.27 69.94C1.22684 68.4386 1.5919 66.9537 2.32627 65.6434C3.06063 64.3332 4.13678 63.2468 5.44 62.5C7.64 61.23 52.22 36.35 89.23 15.7L91.8 14.27C96.96 11.39 102.8 13.95 116.64 22.61C121.45 25.61 126.25 28.81 129.7 31.15C154.6 14.95 156.49 15.53 160.07 16.63C163.49 17.63 250.87 63.54 251.58 63.96C252.808 64.6805 253.826 65.7089 254.535 66.9436C255.243 68.1782 255.617 69.5765 255.62 71C255.57 76.43 252.1 78.44 239.21 85.93L236 87.79L240.77 90.42C255.1 98.42 258.49 100.49 258.59 105.93C258.618 107.384 258.255 108.82 257.539 110.086C256.823 111.353 255.781 112.404 254.52 113.13L175.37 158.51L167.37 163.09C166.095 163.87 164.634 164.291 163.14 164.31V164.31ZM144.89 137.55C152.44 142.29 158.89 146.04 162.26 147.63L167.47 144.63L235.37 105.7C231.06 103.27 225.43 100.19 218.67 96.6L144.89 137.55ZM28.18 103.4C72.43 129.33 94.36 141.61 101.12 144.94C104.03 143.52 109.27 140.48 114.3 137.43L41.2 96.8C35.69 99.55 31.44 101.71 28.18 103.4V103.4ZM58.67 88.2L129.67 127.68L201 88.1L129.52 50.4L58.67 88.2ZM24.22 70.32C28.8 72.89 34.77 76.06 41.22 79.32L114.5 40.24C108.84 36.4096 102.971 32.8975 96.92 29.72C56.29 52.39 35.08 64.24 24.21 70.32H24.22ZM144.92 40.41L218.6 79.27C223.6 76.49 228.18 73.88 231.94 71.68C211 60.68 168.66 38.68 157.35 32.97C154.73 34.38 150.27 37 144.92 40.41V40.41Z" fill="#191919"/>
<path d="M220.42 88C220.5 86.7 248.88 71.67 247.57 70.91C246.26 70.15 159.9 24.97 157.72 24.31C155.72 23.7 130.18 40.74 129.59 40.81C129 40.88 98.76 19.53 95.69 21.25C92.38 23.09 12.3 67.77 9.42999 69.43C6.78999 71 40.7 87.23 40.77 88.07C40.84 88.91 11.08 102.66 12.64 103.56C14.2 104.46 96.47 153 100.87 153.48C103.7 153.79 128.79 137.24 129.69 137.24C130.59 137.24 160.69 157.72 163.45 156.16L250.58 106.16C252.19 105.28 220.34 89.27 220.42 88V88ZM129.69 136.86C128.69 136.78 41.97 88.72 41.95 88.08C41.93 87.44 128.95 41.45 129.54 41.36C130.13 41.27 217.86 86.69 217.85 87.94C217.84 89.19 130.7 136.91 129.69 136.83V136.86Z" fill="white"/>
<path d="M130.67 142.67C130 159.84 129.67 220.34 131.28 244.5Z" fill="#D32920"/>
<path d="M131.27 248.5C130.254 248.502 129.276 248.118 128.533 247.425C127.79 246.733 127.339 245.783 127.27 244.77C125.63 220.09 126 159.55 126.66 142.52C126.68 141.995 126.804 141.479 127.024 141.001C127.244 140.524 127.555 140.094 127.941 139.737C128.327 139.38 128.779 139.102 129.272 138.92C129.766 138.738 130.29 138.655 130.815 138.675C131.34 138.695 131.856 138.819 132.334 139.039C132.811 139.259 133.241 139.57 133.598 139.956C133.955 140.342 134.233 140.794 134.415 141.287C134.597 141.781 134.68 142.305 134.66 142.83C134.02 159.27 133.66 220.26 135.26 244.24C135.295 244.765 135.227 245.291 135.058 245.79C134.89 246.288 134.625 246.748 134.278 247.144C133.932 247.539 133.511 247.863 133.039 248.095C132.568 248.328 132.055 248.466 131.53 248.5H131.27Z" fill="#191919"/>
</g>
<path d="M116.367 280.855C116.367 282.535 116.07 284.008 115.477 285.273C114.883 286.539 114.031 287.516 112.922 288.203C111.82 288.891 110.555 289.234 109.125 289.234C107.711 289.234 106.449 288.895 105.34 288.215C104.23 287.535 103.371 286.566 102.762 285.309C102.152 284.043 101.844 282.59 101.836 280.949V280.105C101.836 278.426 102.137 276.949 102.738 275.676C103.348 274.395 104.203 273.414 105.305 272.734C106.414 272.047 107.68 271.703 109.102 271.703C110.523 271.703 111.785 272.047 112.887 272.734C113.996 273.414 114.852 274.395 115.453 275.676C116.062 276.949 116.367 278.422 116.367 280.094V280.855ZM112.805 280.082C112.805 278.293 112.484 276.934 111.844 276.004C111.203 275.074 110.289 274.609 109.102 274.609C107.922 274.609 107.012 275.07 106.371 275.992C105.73 276.906 105.406 278.25 105.398 280.023V280.855C105.398 282.598 105.719 283.949 106.359 284.91C107 285.871 107.922 286.352 109.125 286.352C110.305 286.352 111.211 285.891 111.844 284.969C112.477 284.039 112.797 282.688 112.805 280.914V280.082ZM122.438 282.988V289H118.922V271.938H125.578C126.859 271.938 127.984 272.172 128.953 272.641C129.93 273.109 130.68 273.777 131.203 274.645C131.727 275.504 131.988 276.484 131.988 277.586C131.988 279.258 131.414 280.578 130.266 281.547C129.125 282.508 127.543 282.988 125.52 282.988H122.438ZM122.438 280.141H125.578C126.508 280.141 127.215 279.922 127.699 279.484C128.191 279.047 128.438 278.422 128.438 277.609C128.438 276.773 128.191 276.098 127.699 275.582C127.207 275.066 126.527 274.801 125.66 274.785H122.438V280.141ZM143.262 284.523C143.262 283.859 143.027 283.352 142.559 283C142.09 282.641 141.246 282.266 140.027 281.875C138.809 281.477 137.844 281.086 137.133 280.703C135.195 279.656 134.227 278.246 134.227 276.473C134.227 275.551 134.484 274.73 135 274.012C135.523 273.285 136.27 272.719 137.238 272.312C138.215 271.906 139.309 271.703 140.52 271.703C141.738 271.703 142.824 271.926 143.777 272.371C144.73 272.809 145.469 273.43 145.992 274.234C146.523 275.039 146.789 275.953 146.789 276.977H143.273C143.273 276.195 143.027 275.59 142.535 275.16C142.043 274.723 141.352 274.504 140.461 274.504C139.602 274.504 138.934 274.688 138.457 275.055C137.98 275.414 137.742 275.891 137.742 276.484C137.742 277.039 138.02 277.504 138.574 277.879C139.137 278.254 139.961 278.605 141.047 278.934C143.047 279.535 144.504 280.281 145.418 281.172C146.332 282.062 146.789 283.172 146.789 284.5C146.789 285.977 146.23 287.137 145.113 287.98C143.996 288.816 142.492 289.234 140.602 289.234C139.289 289.234 138.094 288.996 137.016 288.52C135.938 288.035 135.113 287.375 134.543 286.539C133.98 285.703 133.699 284.734 133.699 283.633H137.227C137.227 285.516 138.352 286.457 140.602 286.457C141.438 286.457 142.09 286.289 142.559 285.953C143.027 285.609 143.262 285.133 143.262 284.523ZM152.402 283.762H149.59L149.191 271.938H152.801L152.402 283.762ZM150.996 285.613C151.566 285.613 152.023 285.781 152.367 286.117C152.719 286.453 152.895 286.883 152.895 287.406C152.895 287.922 152.719 288.348 152.367 288.684C152.023 289.02 151.566 289.188 150.996 289.188C150.434 289.188 149.977 289.02 149.625 288.684C149.281 288.348 149.109 287.922 149.109 287.406C149.109 286.891 149.281 286.465 149.625 286.129C149.977 285.785 150.434 285.613 150.996 285.613ZM42.293 317H38.7773L31.9336 305.773V317H28.418V299.938H31.9336L38.7891 311.188V299.938H42.293V317ZM52.4883 317C52.332 316.695 52.2188 316.316 52.1484 315.863C51.3281 316.777 50.2617 317.234 48.9492 317.234C47.707 317.234 46.6758 316.875 45.8555 316.156C45.043 315.438 44.6367 314.531 44.6367 313.438C44.6367 312.094 45.1328 311.062 46.125 310.344C47.125 309.625 48.5664 309.262 50.4492 309.254H52.0078V308.527C52.0078 307.941 51.8555 307.473 51.5508 307.121C51.2539 306.77 50.7812 306.594 50.1328 306.594C49.5625 306.594 49.1133 306.73 48.7852 307.004C48.4648 307.277 48.3047 307.652 48.3047 308.129H44.918C44.918 307.395 45.1445 306.715 45.5977 306.09C46.0508 305.465 46.6914 304.977 47.5195 304.625C48.3477 304.266 49.2773 304.086 50.3086 304.086C51.8711 304.086 53.1094 304.48 54.0234 305.27C54.9453 306.051 55.4062 307.152 55.4062 308.574V314.07C55.4141 315.273 55.582 316.184 55.9102 316.801V317H52.4883ZM49.6875 314.645C50.1875 314.645 50.6484 314.535 51.0703 314.316C51.4922 314.09 51.8047 313.789 52.0078 313.414V311.234H50.7422C49.0469 311.234 48.1445 311.82 48.0352 312.992L48.0234 313.191C48.0234 313.613 48.1719 313.961 48.4688 314.234C48.7656 314.508 49.1719 314.645 49.6875 314.645ZM54.7031 299.152C54.7031 300.035 54.4453 300.777 53.9297 301.379C53.4141 301.973 52.7852 302.27 52.043 302.27C51.7461 302.27 51.4805 302.238 51.2461 302.176C51.0195 302.105 50.7031 301.961 50.2969 301.742C49.8906 301.523 49.5977 301.391 49.418 301.344C49.2383 301.289 49.043 301.262 48.832 301.262C48.5586 301.262 48.3242 301.359 48.1289 301.555C47.9414 301.75 47.8477 302.027 47.8477 302.387L45.8789 302.27C45.8789 301.402 46.1328 300.664 46.6406 300.055C47.1562 299.445 47.7852 299.141 48.5273 299.141C48.7617 299.141 48.9805 299.172 49.1836 299.234C49.3945 299.289 49.7344 299.43 50.2031 299.656C50.6719 299.883 50.9961 300.02 51.1758 300.066C51.3555 300.113 51.543 300.137 51.7383 300.137C52.0117 300.137 52.2461 300.043 52.4414 299.855C52.6445 299.66 52.7461 299.383 52.7461 299.023L54.7031 299.152ZM57.4805 310.543C57.4805 309.285 57.7227 308.164 58.207 307.18C58.6914 306.195 59.3867 305.434 60.293 304.895C61.207 304.355 62.2656 304.086 63.4688 304.086C65.1797 304.086 66.5742 304.609 67.6523 305.656C68.7383 306.703 69.3438 308.125 69.4688 309.922L69.4922 310.789C69.4922 312.734 68.9492 314.297 67.8633 315.477C66.7773 316.648 65.3203 317.234 63.4922 317.234C61.6641 317.234 60.2031 316.648 59.1094 315.477C58.0234 314.305 57.4805 312.711 57.4805 310.695V310.543ZM60.8672 310.789C60.8672 311.992 61.0938 312.914 61.5469 313.555C62 314.188 62.6484 314.504 63.4922 314.504C64.3125 314.504 64.9531 314.191 65.4141 313.566C65.875 312.934 66.1055 311.926 66.1055 310.543C66.1055 309.363 65.875 308.449 65.4141 307.801C64.9531 307.152 64.3047 306.828 63.4688 306.828C62.6406 306.828 62 307.152 61.5469 307.801C61.0938 308.441 60.8672 309.438 60.8672 310.789ZM83.3906 317.234C81.5312 317.234 80.0156 316.664 78.8438 315.523C77.6797 314.383 77.0977 312.863 77.0977 310.965V310.637C77.0977 309.363 77.3438 308.227 77.8359 307.227C78.3281 306.219 79.0234 305.445 79.9219 304.906C80.8281 304.359 81.8594 304.086 83.0156 304.086C84.75 304.086 86.1133 304.633 87.1055 305.727C88.1055 306.82 88.6055 308.371 88.6055 310.379V311.762H80.5312C80.6406 312.59 80.9688 313.254 81.5156 313.754C82.0703 314.254 82.7695 314.504 83.6133 314.504C84.918 314.504 85.9375 314.031 86.6719 313.086L88.3359 314.949C87.8281 315.668 87.1406 316.23 86.2734 316.637C85.4062 317.035 84.4453 317.234 83.3906 317.234ZM83.0039 306.828C82.332 306.828 81.7852 307.055 81.3633 307.508C80.9492 307.961 80.6836 308.609 80.5664 309.453H85.2773V309.184C85.2617 308.434 85.0586 307.855 84.668 307.449C84.2773 307.035 83.7227 306.828 83.0039 306.828ZM95.3672 308.105L97.5 304.32H101.121L97.5117 310.531L101.273 317H97.6406L95.3789 313.016L93.1289 317H89.4844L93.2461 310.531L89.6484 304.32H93.2812L95.3672 308.105ZM106.324 317H102.926V304.32H106.324V317ZM102.727 301.039C102.727 300.531 102.895 300.113 103.23 299.785C103.574 299.457 104.039 299.293 104.625 299.293C105.203 299.293 105.664 299.457 106.008 299.785C106.352 300.113 106.523 300.531 106.523 301.039C106.523 301.555 106.348 301.977 105.996 302.305C105.652 302.633 105.195 302.797 104.625 302.797C104.055 302.797 103.594 302.633 103.242 302.305C102.898 301.977 102.727 301.555 102.727 301.039ZM115.992 313.496C115.992 313.082 115.785 312.758 115.371 312.523C114.965 312.281 114.309 312.066 113.402 311.879C110.387 311.246 108.879 309.965 108.879 308.035C108.879 306.91 109.344 305.973 110.273 305.223C111.211 304.465 112.434 304.086 113.941 304.086C115.551 304.086 116.836 304.465 117.797 305.223C118.766 305.98 119.25 306.965 119.25 308.176H115.863C115.863 307.691 115.707 307.293 115.395 306.98C115.082 306.66 114.594 306.5 113.93 306.5C113.359 306.5 112.918 306.629 112.605 306.887C112.293 307.145 112.137 307.473 112.137 307.871C112.137 308.246 112.312 308.551 112.664 308.785C113.023 309.012 113.625 309.211 114.469 309.383C115.312 309.547 116.023 309.734 116.602 309.945C118.391 310.602 119.285 311.738 119.285 313.355C119.285 314.512 118.789 315.449 117.797 316.168C116.805 316.879 115.523 317.234 113.953 317.234C112.891 317.234 111.945 317.047 111.117 316.672C110.297 316.289 109.652 315.77 109.184 315.113C108.715 314.449 108.48 313.734 108.48 312.969H111.691C111.723 313.57 111.945 314.031 112.359 314.352C112.773 314.672 113.328 314.832 114.023 314.832C114.672 314.832 115.16 314.711 115.488 314.469C115.824 314.219 115.992 313.895 115.992 313.496ZM125.531 301.203V304.32H127.699V306.805H125.531V313.133C125.531 313.602 125.621 313.938 125.801 314.141C125.98 314.344 126.324 314.445 126.832 314.445C127.207 314.445 127.539 314.418 127.828 314.363V316.93C127.164 317.133 126.48 317.234 125.777 317.234C123.402 317.234 122.191 316.035 122.145 313.637V306.805H120.293V304.32H122.145V301.203H125.531ZM135.422 317.234C133.562 317.234 132.047 316.664 130.875 315.523C129.711 314.383 129.129 312.863 129.129 310.965V310.637C129.129 309.363 129.375 308.227 129.867 307.227C130.359 306.219 131.055 305.445 131.953 304.906C132.859 304.359 133.891 304.086 135.047 304.086C136.781 304.086 138.145 304.633 139.137 305.727C140.137 306.82 140.637 308.371 140.637 310.379V311.762H132.562C132.672 312.59 133 313.254 133.547 313.754C134.102 314.254 134.801 314.504 135.645 314.504C136.949 314.504 137.969 314.031 138.703 313.086L140.367 314.949C139.859 315.668 139.172 316.23 138.305 316.637C137.438 317.035 136.477 317.234 135.422 317.234ZM135.035 306.828C134.363 306.828 133.816 307.055 133.395 307.508C132.98 307.961 132.715 308.609 132.598 309.453H137.309V309.184C137.293 308.434 137.09 307.855 136.699 307.449C136.309 307.035 135.754 306.828 135.035 306.828ZM145.746 304.32L145.852 305.738C146.75 304.637 147.965 304.086 149.496 304.086C151.129 304.086 152.25 304.73 152.859 306.02C153.75 304.73 155.02 304.086 156.668 304.086C158.043 304.086 159.066 304.488 159.738 305.293C160.41 306.09 160.746 307.293 160.746 308.902V317H157.348V308.914C157.348 308.195 157.207 307.672 156.926 307.344C156.645 307.008 156.148 306.84 155.438 306.84C154.422 306.84 153.719 307.324 153.328 308.293L153.34 317H149.953V308.926C149.953 308.191 149.809 307.66 149.52 307.332C149.23 307.004 148.738 306.84 148.043 306.84C147.082 306.84 146.387 307.238 145.957 308.035V317H142.57V304.32H145.746ZM174.609 314.504C175.234 314.504 175.742 314.332 176.133 313.988C176.523 313.645 176.727 313.188 176.742 312.617H179.918C179.91 313.477 179.676 314.266 179.215 314.984C178.754 315.695 178.121 316.25 177.316 316.648C176.52 317.039 175.637 317.234 174.668 317.234C172.855 317.234 171.426 316.66 170.379 315.512C169.332 314.355 168.809 312.762 168.809 310.73V310.508C168.809 308.555 169.328 306.996 170.367 305.832C171.406 304.668 172.832 304.086 174.645 304.086C176.23 304.086 177.5 304.539 178.453 305.445C179.414 306.344 179.902 307.543 179.918 309.043H176.742C176.727 308.387 176.523 307.855 176.133 307.449C175.742 307.035 175.227 306.828 174.586 306.828C173.797 306.828 173.199 307.117 172.793 307.695C172.395 308.266 172.195 309.195 172.195 310.484V310.836C172.195 312.141 172.395 313.078 172.793 313.648C173.191 314.219 173.797 314.504 174.609 314.504ZM189.199 317C189.043 316.695 188.93 316.316 188.859 315.863C188.039 316.777 186.973 317.234 185.66 317.234C184.418 317.234 183.387 316.875 182.566 316.156C181.754 315.438 181.348 314.531 181.348 313.438C181.348 312.094 181.844 311.062 182.836 310.344C183.836 309.625 185.277 309.262 187.16 309.254H188.719V308.527C188.719 307.941 188.566 307.473 188.262 307.121C187.965 306.77 187.492 306.594 186.844 306.594C186.273 306.594 185.824 306.73 185.496 307.004C185.176 307.277 185.016 307.652 185.016 308.129H181.629C181.629 307.395 181.855 306.715 182.309 306.09C182.762 305.465 183.402 304.977 184.23 304.625C185.059 304.266 185.988 304.086 187.02 304.086C188.582 304.086 189.82 304.48 190.734 305.27C191.656 306.051 192.117 307.152 192.117 308.574V314.07C192.125 315.273 192.293 316.184 192.621 316.801V317H189.199ZM186.398 314.645C186.898 314.645 187.359 314.535 187.781 314.316C188.203 314.09 188.516 313.789 188.719 313.414V311.234H187.453C185.758 311.234 184.855 311.82 184.746 312.992L184.734 313.191C184.734 313.613 184.883 313.961 185.18 314.234C185.477 314.508 185.883 314.645 186.398 314.645ZM197.895 304.32L198 305.738C198.898 304.637 200.113 304.086 201.645 304.086C203.277 304.086 204.398 304.73 205.008 306.02C205.898 304.73 207.168 304.086 208.816 304.086C210.191 304.086 211.215 304.488 211.887 305.293C212.559 306.09 212.895 307.293 212.895 308.902V317H209.496V308.914C209.496 308.195 209.355 307.672 209.074 307.344C208.793 307.008 208.297 306.84 207.586 306.84C206.57 306.84 205.867 307.324 205.477 308.293L205.488 317H202.102V308.926C202.102 308.191 201.957 307.66 201.668 307.332C201.379 307.004 200.887 306.84 200.191 306.84C199.23 306.84 198.535 307.238 198.105 308.035V317H194.719V304.32H197.895ZM226.922 310.777C226.922 312.73 226.477 314.297 225.586 315.477C224.703 316.648 223.508 317.234 222 317.234C220.719 317.234 219.684 316.789 218.895 315.898V321.875H215.508V304.32H218.648L218.766 305.562C219.586 304.578 220.656 304.086 221.977 304.086C223.539 304.086 224.754 304.664 225.621 305.82C226.488 306.977 226.922 308.57 226.922 310.602V310.777ZM223.535 310.531C223.535 309.352 223.324 308.441 222.902 307.801C222.488 307.16 221.883 306.84 221.086 306.84C220.023 306.84 219.293 307.246 218.895 308.059V313.25C219.309 314.086 220.047 314.504 221.109 314.504C222.727 314.504 223.535 313.18 223.535 310.531ZM232.605 317H229.207V304.32H232.605V317ZM229.008 301.039C229.008 300.531 229.176 300.113 229.512 299.785C229.855 299.457 230.32 299.293 230.906 299.293C231.484 299.293 231.945 299.457 232.289 299.785C232.633 300.113 232.805 300.531 232.805 301.039C232.805 301.555 232.629 301.977 232.277 302.305C231.934 302.633 231.477 302.797 230.906 302.797C230.336 302.797 229.875 302.633 229.523 302.305C229.18 301.977 229.008 301.555 229.008 301.039ZM73.2773 342.504C73.9023 342.504 74.4102 342.332 74.8008 341.988C75.1914 341.645 75.3945 341.188 75.4102 340.617H78.5859C78.5781 341.477 78.3438 342.266 77.8828 342.984C77.4219 343.695 76.7891 344.25 75.9844 344.648C75.1875 345.039 74.3047 345.234 73.3359 345.234C71.5234 345.234 70.0938 344.66 69.0469 343.512C68 342.355 67.4766 340.762 67.4766 338.73V338.508C67.4766 336.555 67.9961 334.996 69.0352 333.832C70.0742 332.668 71.5 332.086 73.3125 332.086C74.8984 332.086 76.168 332.539 77.1211 333.445C78.082 334.344 78.5703 335.543 78.5859 337.043H75.4102C75.3945 336.387 75.1914 335.855 74.8008 335.449C74.4102 335.035 73.8945 334.828 73.2539 334.828C72.4648 334.828 71.8672 335.117 71.4609 335.695C71.0625 336.266 70.8633 337.195 70.8633 338.484V338.836C70.8633 340.141 71.0625 341.078 71.4609 341.648C71.8594 342.219 72.4648 342.504 73.2773 342.504ZM87.8672 345C87.7109 344.695 87.5977 344.316 87.5273 343.863C86.707 344.777 85.6406 345.234 84.3281 345.234C83.0859 345.234 82.0547 344.875 81.2344 344.156C80.4219 343.438 80.0156 342.531 80.0156 341.438C80.0156 340.094 80.5117 339.062 81.5039 338.344C82.5039 337.625 83.9453 337.262 85.8281 337.254H87.3867V336.527C87.3867 335.941 87.2344 335.473 86.9297 335.121C86.6328 334.77 86.1602 334.594 85.5117 334.594C84.9414 334.594 84.4922 334.73 84.1641 335.004C83.8438 335.277 83.6836 335.652 83.6836 336.129H80.2969C80.2969 335.395 80.5234 334.715 80.9766 334.09C81.4297 333.465 82.0703 332.977 82.8984 332.625C83.7266 332.266 84.6562 332.086 85.6875 332.086C87.25 332.086 88.4883 332.48 89.4023 333.27C90.3242 334.051 90.7852 335.152 90.7852 336.574V342.07C90.793 343.273 90.9609 344.184 91.2891 344.801V345H87.8672ZM85.0664 342.645C85.5664 342.645 86.0273 342.535 86.4492 342.316C86.8711 342.09 87.1836 341.789 87.3867 341.414V339.234H86.1211C84.4258 339.234 83.5234 339.82 83.4141 340.992L83.4023 341.191C83.4023 341.613 83.5508 341.961 83.8477 342.234C84.1445 342.508 84.5508 342.645 85.0664 342.645ZM92.8594 338.566C92.8594 336.59 93.3008 335.016 94.1836 333.844C95.0742 332.672 96.2891 332.086 97.8281 332.086C99.0625 332.086 100.082 332.547 100.887 333.469V327H104.285V345H101.227L101.062 343.652C100.219 344.707 99.1328 345.234 97.8047 345.234C96.3125 345.234 95.1133 344.648 94.207 343.477C93.3086 342.297 92.8594 340.66 92.8594 338.566ZM96.2461 338.812C96.2461 340 96.4531 340.91 96.8672 341.543C97.2812 342.176 97.8828 342.492 98.6719 342.492C99.7188 342.492 100.457 342.051 100.887 341.168V336.164C100.465 335.281 99.7344 334.84 98.6953 334.84C97.0625 334.84 96.2461 336.164 96.2461 338.812ZM114.258 345C114.102 344.695 113.988 344.316 113.918 343.863C113.098 344.777 112.031 345.234 110.719 345.234C109.477 345.234 108.445 344.875 107.625 344.156C106.812 343.438 106.406 342.531 106.406 341.438C106.406 340.094 106.902 339.062 107.895 338.344C108.895 337.625 110.336 337.262 112.219 337.254H113.777V336.527C113.777 335.941 113.625 335.473 113.32 335.121C113.023 334.77 112.551 334.594 111.902 334.594C111.332 334.594 110.883 334.73 110.555 335.004C110.234 335.277 110.074 335.652 110.074 336.129H106.688C106.688 335.395 106.914 334.715 107.367 334.09C107.82 333.465 108.461 332.977 109.289 332.625C110.117 332.266 111.047 332.086 112.078 332.086C113.641 332.086 114.879 332.48 115.793 333.27C116.715 334.051 117.176 335.152 117.176 336.574V342.07C117.184 343.273 117.352 344.184 117.68 344.801V345H114.258ZM111.457 342.645C111.957 342.645 112.418 342.535 112.84 342.316C113.262 342.09 113.574 341.789 113.777 341.414V339.234H112.512C110.816 339.234 109.914 339.82 109.805 340.992L109.793 341.191C109.793 341.613 109.941 341.961 110.238 342.234C110.535 342.508 110.941 342.645 111.457 342.645ZM126.645 341.496C126.645 341.082 126.438 340.758 126.023 340.523C125.617 340.281 124.961 340.066 124.055 339.879C121.039 339.246 119.531 337.965 119.531 336.035C119.531 334.91 119.996 333.973 120.926 333.223C121.863 332.465 123.086 332.086 124.594 332.086C126.203 332.086 127.488 332.465 128.449 333.223C129.418 333.98 129.902 334.965 129.902 336.176H126.516C126.516 335.691 126.359 335.293 126.047 334.98C125.734 334.66 125.246 334.5 124.582 334.5C124.012 334.5 123.57 334.629 123.258 334.887C122.945 335.145 122.789 335.473 122.789 335.871C122.789 336.246 122.965 336.551 123.316 336.785C123.676 337.012 124.277 337.211 125.121 337.383C125.965 337.547 126.676 337.734 127.254 337.945C129.043 338.602 129.938 339.738 129.938 341.355C129.938 342.512 129.441 343.449 128.449 344.168C127.457 344.879 126.176 345.234 124.605 345.234C123.543 345.234 122.598 345.047 121.77 344.672C120.949 344.289 120.305 343.77 119.836 343.113C119.367 342.449 119.133 341.734 119.133 340.969H122.344C122.375 341.57 122.598 342.031 123.012 342.352C123.426 342.672 123.98 342.832 124.676 342.832C125.324 342.832 125.812 342.711 126.141 342.469C126.477 342.219 126.645 341.895 126.645 341.496ZM136.184 329.203V332.32H138.352V334.805H136.184V341.133C136.184 341.602 136.273 341.938 136.453 342.141C136.633 342.344 136.977 342.445 137.484 342.445C137.859 342.445 138.191 342.418 138.48 342.363V344.93C137.816 345.133 137.133 345.234 136.43 345.234C134.055 345.234 132.844 344.035 132.797 341.637V334.805H130.945V332.32H132.797V329.203H136.184ZM147.363 335.496C146.902 335.434 146.496 335.402 146.145 335.402C144.863 335.402 144.023 335.836 143.625 336.703V345H140.238V332.32H143.438L143.531 333.832C144.211 332.668 145.152 332.086 146.355 332.086C146.73 332.086 147.082 332.137 147.41 332.238L147.363 335.496ZM156 345C155.844 344.695 155.73 344.316 155.66 343.863C154.84 344.777 153.773 345.234 152.461 345.234C151.219 345.234 150.188 344.875 149.367 344.156C148.555 343.438 148.148 342.531 148.148 341.438C148.148 340.094 148.645 339.062 149.637 338.344C150.637 337.625 152.078 337.262 153.961 337.254H155.52V336.527C155.52 335.941 155.367 335.473 155.062 335.121C154.766 334.77 154.293 334.594 153.645 334.594C153.074 334.594 152.625 334.73 152.297 335.004C151.977 335.277 151.816 335.652 151.816 336.129H148.43C148.43 335.395 148.656 334.715 149.109 334.09C149.562 333.465 150.203 332.977 151.031 332.625C151.859 332.266 152.789 332.086 153.82 332.086C155.383 332.086 156.621 332.48 157.535 333.27C158.457 334.051 158.918 335.152 158.918 336.574V342.07C158.926 343.273 159.094 344.184 159.422 344.801V345H156ZM153.199 342.645C153.699 342.645 154.16 342.535 154.582 342.316C155.004 342.09 155.316 341.789 155.52 341.414V339.234H154.254C152.559 339.234 151.656 339.82 151.547 340.992L151.535 341.191C151.535 341.613 151.684 341.961 151.98 342.234C152.277 342.508 152.684 342.645 153.199 342.645ZM160.992 338.566C160.992 336.59 161.434 335.016 162.316 333.844C163.207 332.672 164.422 332.086 165.961 332.086C167.195 332.086 168.215 332.547 169.02 333.469V327H172.418V345H169.359L169.195 343.652C168.352 344.707 167.266 345.234 165.938 345.234C164.445 345.234 163.246 344.648 162.34 343.477C161.441 342.297 160.992 340.66 160.992 338.566ZM164.379 338.812C164.379 340 164.586 340.91 165 341.543C165.414 342.176 166.016 342.492 166.805 342.492C167.852 342.492 168.59 342.051 169.02 341.168V336.164C168.598 335.281 167.867 334.84 166.828 334.84C165.195 334.84 164.379 336.164 164.379 338.812ZM174.516 338.543C174.516 337.285 174.758 336.164 175.242 335.18C175.727 334.195 176.422 333.434 177.328 332.895C178.242 332.355 179.301 332.086 180.504 332.086C182.215 332.086 183.609 332.609 184.688 333.656C185.773 334.703 186.379 336.125 186.504 337.922L186.527 338.789C186.527 340.734 185.984 342.297 184.898 343.477C183.812 344.648 182.355 345.234 180.527 345.234C178.699 345.234 177.238 344.648 176.145 343.477C175.059 342.305 174.516 340.711 174.516 338.695V338.543ZM177.902 338.789C177.902 339.992 178.129 340.914 178.582 341.555C179.035 342.188 179.684 342.504 180.527 342.504C181.348 342.504 181.988 342.191 182.449 341.566C182.91 340.934 183.141 339.926 183.141 338.543C183.141 337.363 182.91 336.449 182.449 335.801C181.988 335.152 181.34 334.828 180.504 334.828C179.676 334.828 179.035 335.152 178.582 335.801C178.129 336.441 177.902 337.438 177.902 338.789ZM188.789 343.336C188.789 342.797 188.969 342.359 189.328 342.023C189.695 341.688 190.152 341.52 190.699 341.52C191.254 341.52 191.711 341.688 192.07 342.023C192.438 342.359 192.621 342.797 192.621 343.336C192.621 343.867 192.441 344.301 192.082 344.637C191.723 344.965 191.262 345.129 190.699 345.129C190.145 345.129 189.688 344.965 189.328 344.637C188.969 344.301 188.789 343.867 188.789 343.336Z" fill="black"/>
<defs>
<clipPath id="clip0">
<rect width="256" height="256" fill="white" transform="translate(2)"/>
</clipPath>
</defs>
</svg>
